<svg width="520" height="120" viewBox="0 0 520 120" fill="none" xmlns="http://www.w3.org/2000/svg">
<path d="M43.901 36.096C43.901 38.528 43.357 40.512 42.269 42.048C41.245 43.52 39.741 44.256 37.757 44.256C35.965 44.256 34.365 43.584 32.957 42.24C33.853 41.6 34.525 40.672 34.973 39.456C35.485 38.24 35.741 36.992 35.741 35.712C35.741 33.728 35.101 32.096 33.821 30.816C32.541 29.536 30.589 28.896 27.965 28.896C25.085 28.896 23.005 29.696 21.725 31.296C20.445 32.896 19.805 35.04 19.805 37.728C19.805 40.864 20.541 43.424 22.013 45.408C23.549 47.392 25.437 49.184 27.677 50.784C29.917 52.32 32.317 53.792 34.877 55.2C37.501 56.608 39.933 58.272 42.173 60.192C44.413 62.112 46.269 64.448 47.741 67.2C49.277 69.888 50.045 73.344 50.045 77.568C50.045 81.152 49.437 84.224 48.221 86.784C47.069 89.344 45.469 91.456 43.421 93.12C41.373 94.72 38.941 95.872 36.125 96.576C33.309 97.344 30.237 97.728 26.909 97.728C23.965 97.728 21.053 97.408 18.173 96.768C15.357 96.192 12.829 95.232 10.589 93.888C8.413 92.48 6.653 90.656 5.309 88.416C3.965 86.112 3.293 83.328 3.293 80.064C3.293 77.888 3.581 75.904 4.157 74.112C4.797 72.32 5.629 70.816 6.653 69.6C7.741 68.384 8.989 67.456 10.397 66.816C11.805 66.112 13.277 65.76 14.813 65.76C15.581 65.76 16.413 65.856 17.309 66.048C18.205 66.24 19.101 66.592 19.997 67.104C20.893 67.552 21.725 68.192 22.493 69.024C23.261 69.856 23.869 70.88 24.317 72.096C23.165 72.096 22.013 72.224 20.861 72.48C19.709 72.736 18.653 73.184 17.693 73.824C16.797 74.464 16.061 75.36 15.485 76.512C14.909 77.6 14.621 79.008 14.621 80.736C14.621 84.064 15.645 86.464 17.693 87.936C19.741 89.344 22.301 90.048 25.373 90.048C28.445 90.048 30.813 89.312 32.477 87.84C34.141 86.368 34.973 83.84 34.973 80.256C34.973 76.928 34.269 74.112 32.861 71.808C31.517 69.504 29.789 67.488 27.677 65.76C25.565 64.032 23.293 62.432 20.861 60.96C18.493 59.424 16.253 57.792 14.141 56.064C12.029 54.272 10.269 52.192 8.861 49.824C7.517 47.456 6.845 44.544 6.845 41.088C6.845 35.52 8.701 31.296 12.413 28.416C16.125 25.472 21.181 24 27.581 24C28.477 24 29.821 24.096 31.613 24.288C33.469 24.416 35.293 24.896 37.085 25.728C38.941 26.496 40.541 27.712 41.885 29.376C43.229 30.976 43.901 33.216 43.901 36.096ZM104.314 46.08C107.578 46.08 109.914 47.68 111.322 50.88C112.794 54.08 113.53 58.496 113.53 64.128C113.53 67.776 113.21 71.52 112.57 75.36C111.93 79.2 110.842 82.688 109.306 85.824C107.77 88.96 105.722 91.552 103.162 93.6C100.666 95.584 97.5295 96.576 93.7535 96.576C90.5535 96.576 87.8335 95.872 85.5935 94.464C83.3535 93.056 81.6895 91.072 80.6015 88.512C79.7695 90.304 78.8415 91.744 77.8175 92.832C76.7935 93.856 75.7375 94.656 74.6495 95.232C73.5615 95.808 72.4735 96.16 71.3855 96.288C70.2975 96.48 69.2735 96.576 68.3135 96.576C63.7695 96.576 60.4735 95.232 58.4255 92.544C56.4415 89.856 55.4495 86.24 55.4495 81.696V48H69.2735V80.64C69.2735 83.072 69.5935 84.8 70.2335 85.824C70.9375 86.784 71.9295 87.264 73.2095 87.264C74.9375 87.264 76.3135 86.464 77.3375 84.864C78.3615 83.264 78.9695 81.248 79.1615 78.816V48H92.9855V80.64C92.9855 82.944 93.3055 84.64 93.9455 85.728C94.5855 86.752 95.6415 87.264 97.1135 87.264C98.9695 87.264 100.57 86.528 101.914 85.056C103.258 83.584 104.346 81.696 105.177 79.392C106.074 77.088 106.714 74.528 107.098 71.712C107.546 68.896 107.77 66.144 107.77 63.456C107.77 60.512 107.514 57.76 107.002 55.2C106.874 55.52 106.458 55.776 105.754 55.968C105.05 56.096 104.506 56.16 104.122 56.16C103.418 56.16 102.778 55.968 102.202 55.584C101.69 55.2 101.21 54.72 100.762 54.144C100.378 53.504 100.058 52.832 99.8015 52.128C99.6095 51.424 99.5135 50.752 99.5135 50.112C99.5135 48.96 99.8975 48 100.666 47.232C101.498 46.464 102.714 46.08 104.314 46.08ZM140.806 88.512C142.726 88.512 144.422 88.256 145.894 87.744C147.366 87.232 148.678 86.56 149.83 85.728C150.982 84.832 152.038 83.808 152.998 82.656C153.958 81.44 154.886 80.16 155.782 78.816H159.046C158.15 81.056 157.062 83.232 155.782 85.344C154.566 87.456 153.03 89.344 151.174 91.008C149.382 92.672 147.27 94.016 144.838 95.04C142.406 96.064 139.558 96.576 136.294 96.576C133.542 96.576 131.014 96.16 128.71 95.328C126.406 94.496 124.39 93.216 122.662 91.488C120.998 89.696 119.686 87.424 118.726 84.672C117.83 81.856 117.382 78.496 117.382 74.592C117.382 71.84 117.67 68.896 118.246 65.76C118.886 62.56 119.974 59.616 121.51 56.928C123.046 54.24 125.126 52 127.75 50.208C130.374 48.416 133.702 47.52 137.734 47.52C140.806 47.52 143.174 48 144.838 48.96C146.502 49.92 147.718 51.04 148.486 52.32C149.318 53.6 149.798 54.848 149.926 56.064C150.118 57.28 150.214 58.144 150.214 58.656C150.214 61.536 149.67 64.064 148.582 66.24C147.558 68.416 146.15 70.272 144.358 71.808C142.63 73.28 140.614 74.432 138.31 75.264C136.07 76.032 133.766 76.48 131.398 76.608C131.462 80.896 132.166 83.968 133.51 85.824C134.918 87.616 137.35 88.512 140.806 88.512ZM142.822 58.752C142.822 56.512 142.438 54.944 141.67 54.048C140.902 53.088 140.07 52.608 139.174 52.608C138.086 52.608 137.094 53.152 136.198 54.24C135.302 55.264 134.502 56.672 133.798 58.464C133.158 60.192 132.614 62.24 132.166 64.608C131.782 66.976 131.526 69.44 131.398 72C132.998 71.872 134.502 71.456 135.91 70.752C137.318 69.984 138.534 69.024 139.558 67.872C140.582 66.656 141.382 65.28 141.958 63.744C142.534 62.208 142.822 60.544 142.822 58.752ZM177.65 88.512C179.57 88.512 181.266 88.256 182.738 87.744C184.21 87.232 185.522 86.56 186.674 85.728C187.826 84.832 188.882 83.808 189.842 82.656C190.802 81.44 191.73 80.16 192.626 78.816H195.89C194.994 81.056 193.906 83.232 192.626 85.344C191.41 87.456 189.874 89.344 188.018 91.008C186.226 92.672 184.114 94.016 181.682 95.04C179.25 96.064 176.402 96.576 173.138 96.576C170.386 96.576 167.858 96.16 165.554 95.328C163.25 94.496 161.234 93.216 159.506 91.488C157.842 89.696 156.53 87.424 155.57 84.672C154.674 81.856 154.226 78.496 154.226 74.592C154.226 71.84 154.514 68.896 155.09 65.76C155.73 62.56 156.818 59.616 158.354 56.928C159.89 54.24 161.97 52 164.594 50.208C167.218 48.416 170.546 47.52 174.578 47.52C177.65 47.52 180.018 48 181.682 48.96C183.346 49.92 184.562 51.04 185.33 52.32C186.162 53.6 186.642 54.848 186.77 56.064C186.962 57.28 187.058 58.144 187.058 58.656C187.058 61.536 186.514 64.064 185.426 66.24C184.402 68.416 182.994 70.272 181.202 71.808C179.474 73.28 177.458 74.432 175.154 75.264C172.914 76.032 170.61 76.48 168.242 76.608C168.306 80.896 169.01 83.968 170.354 85.824C171.762 87.616 174.194 88.512 177.65 88.512ZM179.666 58.752C179.666 56.512 179.282 54.944 178.514 54.048C177.746 53.088 176.914 52.608 176.018 52.608C174.93 52.608 173.938 53.152 173.042 54.24C172.146 55.264 171.346 56.672 170.642 58.464C170.002 60.192 169.458 62.24 169.01 64.608C168.626 66.976 168.37 69.44 168.242 72C169.842 71.872 171.346 71.456 172.754 70.752C174.162 69.984 175.378 69.024 176.402 67.872C177.426 66.656 178.226 65.28 178.802 63.744C179.378 62.208 179.666 60.544 179.666 58.752ZM206.814 32.832V48H212.574V51.84H206.814V80.64C206.814 83.328 207.166 85.12 207.87 86.016C208.638 86.848 209.95 87.264 211.806 87.264C212.51 87.264 213.054 87.2 213.438 87.072C213.886 86.88 214.238 86.688 214.494 86.496C214.558 86.816 214.59 87.168 214.59 87.552C214.59 87.872 214.59 88.192 214.59 88.512C214.59 91.2 213.79 93.216 212.19 94.56C210.654 95.904 208.702 96.576 206.334 96.576C201.406 96.576 197.95 95.232 195.966 92.544C193.982 89.792 192.99 86.176 192.99 81.696V51.84H189.918V48H192.99V34.752L206.814 32.832ZM270.085 33.024V55.2H270.853C272.517 55.2 273.989 54.816 275.269 54.048C276.613 53.216 277.733 52.128 278.629 50.784C279.525 49.44 280.197 47.936 280.645 46.272C281.093 44.544 281.317 42.784 281.317 40.992C281.317 39.776 281.157 38.432 280.837 36.96C280.517 35.488 279.845 34.144 278.821 32.928C277.861 31.648 276.421 30.592 274.501 29.76C272.645 28.864 270.149 28.416 267.013 28.416C264.069 28.416 261.349 28.832 258.853 29.664C256.421 30.496 254.309 31.744 252.517 33.408C250.725 35.008 249.317 37.024 248.293 39.456C247.269 41.824 246.757 44.576 246.757 47.712C246.757 49.504 246.885 51.04 247.141 52.32C247.461 53.536 247.813 54.56 248.197 55.392C248.581 56.16 248.933 56.768 249.253 57.216C249.637 57.664 249.893 58.016 250.021 58.272C246.181 58.272 243.141 57.376 240.901 55.584C238.661 53.792 237.541 50.976 237.541 47.136C237.541 44 238.277 41.056 239.749 38.304C241.221 35.488 243.301 33.024 245.989 30.912C248.677 28.8 251.877 27.136 255.589 25.92C259.365 24.64 263.525 24 268.069 24C271.525 24 274.693 24.384 277.573 25.152C280.453 25.92 282.917 27.04 284.965 28.512C287.077 29.984 288.709 31.808 289.861 33.984C291.013 36.16 291.589 38.624 291.589 41.376C291.589 44.192 290.949 46.88 289.669 49.44C288.453 52 286.629 54.112 284.197 55.776C287.333 56.544 289.669 58.144 291.205 60.576C292.805 63.008 293.605 66.56 293.605 71.232C293.605 72.128 293.573 73.248 293.509 74.592C293.445 75.872 293.381 77.184 293.317 78.528C293.317 79.872 293.285 81.152 293.221 82.368C293.157 83.584 293.125 84.576 293.125 85.344C293.125 88.48 293.605 90.88 294.565 92.544C295.589 94.208 296.933 95.36 298.597 96C296.677 96.576 294.949 96.992 293.413 97.248C291.877 97.504 290.501 97.632 289.285 97.632C286.149 97.632 283.845 96.8 282.373 95.136C280.901 93.408 280.165 90.688 280.165 86.976C280.165 86.08 280.197 84.96 280.261 83.616C280.325 82.272 280.389 80.864 280.453 79.392C280.581 77.92 280.677 76.48 280.741 75.072C280.805 73.6 280.837 72.288 280.837 71.136C280.837 67.616 280.293 64.8 279.205 62.688C278.181 60.512 276.197 59.424 273.253 59.424C272.165 59.424 271.109 59.552 270.085 59.808V96H256.261V34.944L270.085 33.024ZM324.556 88.512C326.476 88.512 328.172 88.256 329.644 87.744C331.116 87.232 332.428 86.56 333.58 85.728C334.732 84.832 335.788 83.808 336.748 82.656C337.708 81.44 338.636 80.16 339.532 78.816H342.796C341.9 81.056 340.812 83.232 339.532 85.344C338.316 87.456 336.78 89.344 334.924 91.008C333.132 92.672 331.02 94.016 328.588 95.04C326.156 96.064 323.308 96.576 320.044 96.576C317.292 96.576 314.764 96.16 312.46 95.328C310.156 94.496 308.14 93.216 306.412 91.488C304.748 89.696 303.436 87.424 302.476 84.672C301.58 81.856 301.132 78.496 301.132 74.592C301.132 71.84 301.42 68.896 301.996 65.76C302.636 62.56 303.724 59.616 305.26 56.928C306.796 54.24 308.876 52 311.5 50.208C314.124 48.416 317.452 47.52 321.484 47.52C324.556 47.52 326.924 48 328.588 48.96C330.252 49.92 331.468 51.04 332.236 52.32C333.068 53.6 333.548 54.848 333.676 56.064C333.868 57.28 333.964 58.144 333.964 58.656C333.964 61.536 333.42 64.064 332.332 66.24C331.308 68.416 329.9 70.272 328.108 71.808C326.38 73.28 324.364 74.432 322.06 75.264C319.82 76.032 317.516 76.48 315.148 76.608C315.212 80.896 315.916 83.968 317.26 85.824C318.668 87.616 321.1 88.512 324.556 88.512ZM326.572 58.752C326.572 56.512 326.188 54.944 325.42 54.048C324.652 53.088 323.82 52.608 322.924 52.608C321.836 52.608 320.844 53.152 319.948 54.24C319.052 55.264 318.252 56.672 317.548 58.464C316.908 60.192 316.364 62.24 315.916 64.608C315.532 66.976 315.276 69.44 315.148 72C316.748 71.872 318.252 71.456 319.66 70.752C321.068 69.984 322.284 69.024 323.308 67.872C324.332 66.656 325.132 65.28 325.708 63.744C326.284 62.208 326.572 60.544 326.572 58.752ZM378.968 48V92.544C380.312 92.032 381.496 91.424 382.52 90.72C383.544 90.016 384.44 89.152 385.208 88.128C385.976 87.04 386.584 85.76 387.032 84.288C387.544 82.752 387.928 80.928 388.184 78.816H392.216C391.896 82.016 391.288 84.672 390.392 86.784C389.56 88.832 388.504 90.528 387.224 91.872C386.008 93.216 384.664 94.272 383.192 95.04C381.784 95.808 380.376 96.416 378.968 96.864V103.68C378.968 107.136 378.552 109.92 377.72 112.032C376.888 114.144 375.8 115.776 374.456 116.928C373.176 118.144 371.736 118.944 370.136 119.328C368.6 119.776 367.096 120 365.624 120C363.768 120 362.008 119.744 360.344 119.232C358.744 118.72 357.336 117.984 356.12 117.024C354.968 116.128 354.04 115.008 353.336 113.664C352.632 112.32 352.28 110.816 352.28 109.152C352.28 107.424 352.632 105.856 353.336 104.448C354.104 103.104 355.096 101.92 356.312 100.896C357.528 99.872 358.904 98.976 360.44 98.208C361.976 97.504 363.544 96.896 365.144 96.384V88.32C364.056 90.112 362.648 91.616 360.92 92.832C359.256 94.048 357.048 94.656 354.296 94.656C352.312 94.656 350.328 94.272 348.344 93.504C346.36 92.736 344.568 91.52 342.968 89.856C341.368 88.192 340.056 86.016 339.032 83.328C338.072 80.576 337.592 77.28 337.592 73.44C337.592 70.56 337.912 67.616 338.552 64.608C339.192 61.536 340.248 58.752 341.72 56.256C343.256 53.696 345.24 51.616 347.672 50.016C350.168 48.352 353.208 47.52 356.792 47.52C357.432 47.52 358.136 47.584 358.904 47.712C359.736 47.776 360.536 47.968 361.304 48.288C362.072 48.608 362.808 49.088 363.512 49.728C364.216 50.368 364.76 51.232 365.144 52.32V48H378.968ZM360.536 53.472C358.936 53.472 357.56 54.08 356.408 55.296C355.32 56.512 354.392 58.08 353.624 60C352.92 61.856 352.408 63.936 352.088 66.24C351.768 68.544 351.608 70.784 351.608 72.96C351.608 75.968 351.864 78.304 352.376 79.968C352.888 81.632 353.496 82.88 354.2 83.712C354.904 84.48 355.608 84.96 356.312 85.152C357.016 85.28 357.56 85.344 357.944 85.344C359.992 85.344 361.624 84.672 362.84 83.328C364.12 81.984 364.888 80.288 365.144 78.24V56.832C364.952 56.192 364.472 55.488 363.704 54.72C363 53.888 361.944 53.472 360.536 53.472ZM357.368 108.384C357.368 109.6 357.784 110.592 358.616 111.36C359.448 112.128 360.312 112.512 361.208 112.512C362.36 112.512 363.288 111.808 363.992 110.4C364.76 108.992 365.144 106.848 365.144 103.968V101.184C362.904 102.08 361.048 103.104 359.576 104.256C358.104 105.472 357.368 106.848 357.368 108.384ZM401.992 48V53.952C403.4 52.288 404.968 50.816 406.696 49.536C408.424 48.192 410.312 47.52 412.36 47.52C413.576 47.52 414.664 47.776 415.624 48.288C416.648 48.8 417.512 49.472 418.216 50.304C418.984 51.136 419.56 52.064 419.944 53.088C420.392 54.048 420.616 55.04 420.616 56.064C420.616 57.472 420.168 58.784 419.272 60C418.44 61.152 417.032 61.728 415.048 61.728C413.576 61.728 412.552 61.408 411.976 60.768C411.4 60.128 410.952 59.456 410.632 58.752C410.312 57.984 409.96 57.28 409.576 56.64C409.256 56 408.648 55.68 407.752 55.68C406.792 55.68 405.832 56.064 404.872 56.832C403.976 57.536 403.016 58.432 401.992 59.52V96H388.168V48H401.992ZM446.15 88.512C448.07 88.512 449.766 88.256 451.238 87.744C452.71 87.232 454.022 86.56 455.174 85.728C456.326 84.832 457.382 83.808 458.342 82.656C459.302 81.44 460.23 80.16 461.126 78.816H464.39C463.494 81.056 462.406 83.232 461.126 85.344C459.91 87.456 458.374 89.344 456.518 91.008C454.726 92.672 452.614 94.016 450.182 95.04C447.75 96.064 444.902 96.576 441.638 96.576C438.886 96.576 436.358 96.16 434.054 95.328C431.75 94.496 429.734 93.216 428.006 91.488C426.342 89.696 425.03 87.424 424.07 84.672C423.174 81.856 422.726 78.496 422.726 74.592C422.726 71.84 423.014 68.896 423.59 65.76C424.23 62.56 425.318 59.616 426.854 56.928C428.39 54.24 430.47 52 433.094 50.208C435.718 48.416 439.046 47.52 443.078 47.52C446.15 47.52 448.518 48 450.182 48.96C451.846 49.92 453.062 51.04 453.83 52.32C454.662 53.6 455.142 54.848 455.27 56.064C455.462 57.28 455.558 58.144 455.558 58.656C455.558 61.536 455.014 64.064 453.926 66.24C452.902 68.416 451.494 70.272 449.702 71.808C447.974 73.28 445.958 74.432 443.654 75.264C441.414 76.032 439.11 76.48 436.742 76.608C436.806 80.896 437.51 83.968 438.854 85.824C440.262 87.616 442.694 88.512 446.15 88.512ZM448.166 58.752C448.166 56.512 447.782 54.944 447.014 54.048C446.246 53.088 445.414 52.608 444.518 52.608C443.43 52.608 442.438 53.152 441.542 54.24C440.646 55.264 439.846 56.672 439.142 58.464C438.502 60.192 437.958 62.24 437.51 64.608C437.126 66.976 436.87 69.44 436.742 72C438.342 71.872 439.846 71.456 441.254 70.752C442.662 69.984 443.878 69.024 444.902 67.872C445.926 66.656 446.726 65.28 447.302 63.744C447.878 62.208 448.166 60.544 448.166 58.752ZM474.93 32.832V48H480.786V51.84H474.93V80.64C474.93 83.328 475.282 85.12 475.986 86.016C476.754 86.848 478.066 87.264 479.922 87.264C481.778 87.264 483.314 86.464 484.53 84.864C485.81 83.264 486.546 81.248 486.738 78.816H490.77C490.258 82.72 489.362 85.856 488.082 88.224C486.802 90.528 485.362 92.32 483.762 93.6C482.162 94.816 480.53 95.616 478.866 96C477.202 96.384 475.73 96.576 474.45 96.576C469.522 96.576 466.066 95.232 464.082 92.544C462.098 89.792 461.106 86.176 461.106 81.696V51.84H458.034V48H461.106V34.752L474.93 32.832ZM509.164 45.024C510.764 51.232 512.108 56.288 513.196 60.192C514.284 64.032 515.148 67.264 515.788 69.888C516.428 72.448 516.876 74.688 517.132 76.608C517.388 78.528 517.516 80.672 517.516 83.04C517.516 85.536 517.004 87.648 515.98 89.376C514.956 91.104 513.644 92.512 512.044 93.6C510.508 94.624 508.78 95.392 506.859 95.904C504.94 96.352 503.116 96.576 501.388 96.576C498.572 96.576 496.108 96.128 493.996 95.232C491.884 94.336 490.124 93.216 488.716 91.872C487.308 90.464 486.252 88.928 485.548 87.264C484.844 85.536 484.492 83.904 484.492 82.368C484.492 80.64 484.812 79.168 485.452 77.952C486.156 76.736 487.02 75.872 488.044 75.36C489.9 70.56 491.436 65.824 492.652 61.152C493.932 56.416 494.828 51.68 495.34 46.944L509.164 45.024ZM495.628 79.68C495.628 80.64 495.34 81.536 494.764 82.368C494.188 83.136 493.356 83.52 492.268 83.52C491.756 83.52 491.212 83.456 490.636 83.328C490.124 83.136 489.708 82.784 489.388 82.272C489.9 84.512 490.7 86.208 491.788 87.36C492.94 88.448 494.572 88.992 496.684 88.992C498.54 88.992 500.14 88.512 501.484 87.552C502.828 86.528 503.5 84.768 503.5 82.272C503.5 80.544 503.404 79.008 503.212 77.664C503.02 76.256 502.7 74.688 502.252 72.96C501.868 71.232 501.324 69.184 500.62 66.816C499.98 64.448 499.18 61.472 498.22 57.888C497.58 60.96 496.78 63.936 495.82 66.816C494.924 69.632 493.964 72.576 492.94 75.648C493.644 75.968 494.252 76.48 494.764 77.184C495.34 77.824 495.628 78.656 495.628 79.68Z" fill="#C14B5E"/>
</svg>
