<svg width="285" height="200" viewBox="0 0 285 200" fill="none" xmlns="http://www.w3.org/2000/svg">
<path d="M34.7408 113.024V135.2H35.5088C37.1728 135.2 38.6448 134.816 39.9248 134.048C41.2688 133.216 42.3888 132.128 43.2848 130.784C44.1808 129.44 44.8528 127.936 45.3008 126.272C45.7488 124.544 45.9728 122.784 45.9728 120.992C45.9728 119.776 45.8128 118.432 45.4928 116.96C45.1728 115.488 44.5008 114.144 43.4768 112.928C42.5168 111.648 41.0768 110.592 39.1568 109.76C37.3008 108.864 34.8048 108.416 31.6688 108.416C28.7248 108.416 26.0048 108.832 23.5088 109.664C21.0768 110.496 18.9648 111.744 17.1728 113.408C15.3808 115.008 13.9728 117.024 12.9488 119.456C11.9248 121.824 11.4128 124.576 11.4128 127.712C11.4128 129.504 11.5408 131.04 11.7968 132.32C12.1168 133.536 12.4688 134.56 12.8528 135.392C13.2368 136.16 13.5888 136.768 13.9088 137.216C14.2928 137.664 14.5488 138.016 14.6768 138.272C10.8368 138.272 7.79675 137.376 5.55675 135.584C3.31675 133.792 2.19675 130.976 2.19675 127.136C2.19675 124 2.93275 121.056 4.40475 118.304C5.87675 115.488 7.95675 113.024 10.6448 110.912C13.3328 108.8 16.5328 107.136 20.2448 105.92C24.0208 104.64 28.1808 104 32.7248 104C36.1808 104 39.3488 104.384 42.2288 105.152C45.1088 105.92 47.5728 107.04 49.6208 108.512C51.7328 109.984 53.3648 111.808 54.5168 113.984C55.6688 116.16 56.2448 118.624 56.2448 121.376C56.2448 124.192 55.6048 126.88 54.3248 129.44C53.1088 132 51.2848 134.112 48.8528 135.776C51.9888 136.544 54.3248 138.144 55.8608 140.576C57.4608 143.008 58.2608 146.56 58.2608 151.232C58.2608 152.128 58.2288 153.248 58.1648 154.592C58.1008 155.872 58.0368 157.184 57.9728 158.528C57.9728 159.872 57.9408 161.152 57.8768 162.368C57.8128 163.584 57.7808 164.576 57.7808 165.344C57.7808 168.48 58.2608 170.88 59.2208 172.544C60.2448 174.208 61.5888 175.36 63.2528 176C61.3328 176.576 59.6048 176.992 58.0688 177.248C56.5328 177.504 55.1568 177.632 53.9408 177.632C50.8048 177.632 48.5008 176.8 47.0288 175.136C45.5568 173.408 44.8208 170.688 44.8208 166.976C44.8208 166.08 44.8528 164.96 44.9168 163.616C44.9808 162.272 45.0448 160.864 45.1088 159.392C45.2368 157.92 45.3328 156.48 45.3968 155.072C45.4608 153.6 45.4928 152.288 45.4928 151.136C45.4928 147.616 44.9488 144.8 43.8608 142.688C42.8368 140.512 40.8528 139.424 37.9088 139.424C36.8208 139.424 35.7648 139.552 34.7408 139.808V176H20.9168V114.944L34.7408 113.024ZM89.2125 168.512C91.1325 168.512 92.8285 168.256 94.3005 167.744C95.7725 167.232 97.0845 166.56 98.2365 165.728C99.3885 164.832 100.445 163.808 101.405 162.656C102.365 161.44 103.293 160.16 104.189 158.816H107.453C106.557 161.056 105.469 163.232 104.189 165.344C102.973 167.456 101.437 169.344 99.5805 171.008C97.7885 172.672 95.6765 174.016 93.2445 175.04C90.8125 176.064 87.9645 176.576 84.7005 176.576C81.9485 176.576 79.4205 176.16 77.1165 175.328C74.8125 174.496 72.7965 173.216 71.0685 171.488C69.4045 169.696 68.0925 167.424 67.1325 164.672C66.2365 161.856 65.7885 158.496 65.7885 154.592C65.7885 151.84 66.0765 148.896 66.6525 145.76C67.2925 142.56 68.3805 139.616 69.9165 136.928C71.4525 134.24 73.5325 132 76.1565 130.208C78.7805 128.416 82.1085 127.52 86.1405 127.52C89.2125 127.52 91.5805 128 93.2445 128.96C94.9085 129.92 96.1245 131.04 96.8925 132.32C97.7245 133.6 98.2045 134.848 98.3325 136.064C98.5245 137.28 98.6205 138.144 98.6205 138.656C98.6205 141.536 98.0765 144.064 96.9885 146.24C95.9645 148.416 94.5565 150.272 92.7645 151.808C91.0365 153.28 89.0205 154.432 86.7165 155.264C84.4765 156.032 82.1725 156.48 79.8045 156.608C79.8685 160.896 80.5725 163.968 81.9165 165.824C83.3245 167.616 85.7565 168.512 89.2125 168.512ZM91.2285 138.752C91.2285 136.512 90.8445 134.944 90.0765 134.048C89.3085 133.088 88.4765 132.608 87.5805 132.608C86.4925 132.608 85.5005 133.152 84.6045 134.24C83.7085 135.264 82.9085 136.672 82.2045 138.464C81.5645 140.192 81.0205 142.24 80.5725 144.608C80.1885 146.976 79.9325 149.44 79.8045 152C81.4045 151.872 82.9085 151.456 84.3165 150.752C85.7245 149.984 86.9405 149.024 87.9645 147.872C88.9885 146.656 89.7885 145.28 90.3645 143.744C90.9405 142.208 91.2285 140.544 91.2285 138.752ZM143.624 128V172.544C144.968 172.032 146.152 171.424 147.176 170.72C148.2 170.016 149.096 169.152 149.864 168.128C150.632 167.04 151.24 165.76 151.688 164.288C152.2 162.752 152.584 160.928 152.84 158.816H156.872C156.552 162.016 155.944 164.672 155.048 166.784C154.216 168.832 153.16 170.528 151.88 171.872C150.664 173.216 149.32 174.272 147.848 175.04C146.44 175.808 145.032 176.416 143.624 176.864V183.68C143.624 187.136 143.208 189.92 142.376 192.032C141.544 194.144 140.456 195.776 139.112 196.928C137.832 198.144 136.392 198.944 134.792 199.328C133.256 199.776 131.752 200 130.28 200C128.424 200 126.664 199.744 125 199.232C123.4 198.72 121.992 197.984 120.776 197.024C119.624 196.128 118.696 195.008 117.992 193.664C117.288 192.32 116.936 190.816 116.936 189.152C116.936 187.424 117.288 185.856 117.992 184.448C118.76 183.104 119.752 181.92 120.968 180.896C122.184 179.872 123.56 178.976 125.096 178.208C126.632 177.504 128.2 176.896 129.8 176.384V168.32C128.712 170.112 127.304 171.616 125.576 172.832C123.912 174.048 121.704 174.656 118.952 174.656C116.968 174.656 114.984 174.272 113 173.504C111.016 172.736 109.224 171.52 107.624 169.856C106.024 168.192 104.712 166.016 103.688 163.328C102.728 160.576 102.248 157.28 102.248 153.44C102.248 150.56 102.568 147.616 103.208 144.608C103.848 141.536 104.904 138.752 106.376 136.256C107.912 133.696 109.896 131.616 112.328 130.016C114.824 128.352 117.864 127.52 121.448 127.52C122.088 127.52 122.792 127.584 123.56 127.712C124.392 127.776 125.192 127.968 125.96 128.288C126.728 128.608 127.464 129.088 128.168 129.728C128.872 130.368 129.416 131.232 129.8 132.32V128H143.624ZM125.192 133.472C123.592 133.472 122.216 134.08 121.064 135.296C119.976 136.512 119.048 138.08 118.28 140C117.576 141.856 117.064 143.936 116.744 146.24C116.424 148.544 116.264 150.784 116.264 152.96C116.264 155.968 116.52 158.304 117.032 159.968C117.544 161.632 118.152 162.88 118.856 163.712C119.56 164.48 120.264 164.96 120.968 165.152C121.672 165.28 122.216 165.344 122.6 165.344C124.648 165.344 126.28 164.672 127.496 163.328C128.776 161.984 129.544 160.288 129.8 158.24V136.832C129.608 136.192 129.128 135.488 128.36 134.72C127.656 133.888 126.6 133.472 125.192 133.472ZM122.024 188.384C122.024 189.6 122.44 190.592 123.272 191.36C124.104 192.128 124.968 192.512 125.864 192.512C127.016 192.512 127.944 191.808 128.648 190.4C129.416 188.992 129.8 186.848 129.8 183.968V181.184C127.56 182.08 125.704 183.104 124.232 184.256C122.76 185.472 122.024 186.848 122.024 188.384ZM166.649 128V133.952C168.057 132.288 169.625 130.816 171.353 129.536C173.081 128.192 174.969 127.52 177.017 127.52C178.233 127.52 179.321 127.776 180.281 128.288C181.305 128.8 182.169 129.472 182.873 130.304C183.641 131.136 184.217 132.064 184.601 133.088C185.049 134.048 185.273 135.04 185.273 136.064C185.273 137.472 184.825 138.784 183.929 140C183.097 141.152 181.689 141.728 179.705 141.728C178.233 141.728 177.209 141.408 176.633 140.768C176.057 140.128 175.609 139.456 175.289 138.752C174.969 137.984 174.617 137.28 174.233 136.64C173.913 136 173.305 135.68 172.409 135.68C171.449 135.68 170.489 136.064 169.529 136.832C168.633 137.536 167.673 138.432 166.649 139.52V176H152.825V128H166.649ZM210.806 168.512C212.726 168.512 214.422 168.256 215.894 167.744C217.366 167.232 218.678 166.56 219.83 165.728C220.982 164.832 222.038 163.808 222.998 162.656C223.958 161.44 224.886 160.16 225.782 158.816H229.046C228.15 161.056 227.062 163.232 225.782 165.344C224.566 167.456 223.03 169.344 221.174 171.008C219.382 172.672 217.27 174.016 214.838 175.04C212.406 176.064 209.558 176.576 206.294 176.576C203.542 176.576 201.014 176.16 198.71 175.328C196.406 174.496 194.39 173.216 192.662 171.488C190.998 169.696 189.686 167.424 188.726 164.672C187.83 161.856 187.382 158.496 187.382 154.592C187.382 151.84 187.67 148.896 188.246 145.76C188.886 142.56 189.974 139.616 191.51 136.928C193.046 134.24 195.126 132 197.75 130.208C200.374 128.416 203.702 127.52 207.734 127.52C210.806 127.52 213.174 128 214.838 128.96C216.502 129.92 217.718 131.04 218.486 132.32C219.318 133.6 219.798 134.848 219.926 136.064C220.118 137.28 220.214 138.144 220.214 138.656C220.214 141.536 219.67 144.064 218.582 146.24C217.558 148.416 216.15 150.272 214.358 151.808C212.63 153.28 210.614 154.432 208.31 155.264C206.07 156.032 203.766 156.48 201.398 156.608C201.462 160.896 202.166 163.968 203.51 165.824C204.918 167.616 207.35 168.512 210.806 168.512ZM212.822 138.752C212.822 136.512 212.438 134.944 211.67 134.048C210.902 133.088 210.07 132.608 209.174 132.608C208.086 132.608 207.094 133.152 206.198 134.24C205.302 135.264 204.502 136.672 203.798 138.464C203.158 140.192 202.614 142.24 202.166 144.608C201.782 146.976 201.526 149.44 201.398 152C202.998 151.872 204.502 151.456 205.91 150.752C207.318 149.984 208.534 149.024 209.558 147.872C210.582 146.656 211.382 145.28 211.958 143.744C212.534 142.208 212.822 140.544 212.822 138.752ZM239.586 112.832V128H245.442V131.84H239.586V160.64C239.586 163.328 239.938 165.12 240.642 166.016C241.41 166.848 242.722 167.264 244.578 167.264C246.434 167.264 247.97 166.464 249.186 164.864C250.466 163.264 251.202 161.248 251.394 158.816H255.426C254.914 162.72 254.018 165.856 252.738 168.224C251.458 170.528 250.018 172.32 248.418 173.6C246.818 174.816 245.186 175.616 243.522 176C241.858 176.384 240.386 176.576 239.106 176.576C234.178 176.576 230.722 175.232 228.738 172.544C226.754 169.792 225.762 166.176 225.762 161.696V131.84H222.69V128H225.762V114.752L239.586 112.832ZM273.82 125.024C275.42 131.232 276.764 136.288 277.852 140.192C278.94 144.032 279.804 147.264 280.444 149.888C281.084 152.448 281.532 154.688 281.788 156.608C282.044 158.528 282.172 160.672 282.172 163.04C282.172 165.536 281.66 167.648 280.636 169.376C279.612 171.104 278.3 172.512 276.7 173.6C275.164 174.624 273.436 175.392 271.516 175.904C269.596 176.352 267.772 176.576 266.044 176.576C263.228 176.576 260.764 176.128 258.652 175.232C256.54 174.336 254.78 173.216 253.372 171.872C251.964 170.464 250.908 168.928 250.204 167.264C249.5 165.536 249.148 163.904 249.148 162.368C249.148 160.64 249.468 159.168 250.108 157.952C250.812 156.736 251.676 155.872 252.7 155.36C254.556 150.56 256.092 145.824 257.308 141.152C258.588 136.416 259.484 131.68 259.996 126.944L273.82 125.024ZM260.284 159.68C260.284 160.64 259.996 161.536 259.42 162.368C258.844 163.136 258.012 163.52 256.924 163.52C256.412 163.52 255.868 163.456 255.292 163.328C254.78 163.136 254.364 162.784 254.044 162.272C254.556 164.512 255.356 166.208 256.444 167.36C257.596 168.448 259.228 168.992 261.34 168.992C263.196 168.992 264.796 168.512 266.14 167.552C267.484 166.528 268.156 164.768 268.156 162.272C268.156 160.544 268.06 159.008 267.868 157.664C267.676 156.256 267.356 154.688 266.908 152.96C266.524 151.232 265.98 149.184 265.276 146.816C264.636 144.448 263.836 141.472 262.876 137.888C262.236 140.96 261.436 143.936 260.476 146.816C259.58 149.632 258.62 152.576 257.596 155.648C258.3 155.968 258.908 156.48 259.42 157.184C259.996 157.824 260.284 158.656 260.284 159.68Z" fill="#C14B5E"/>
<path d="M105.245 36.096C105.245 38.528 104.701 40.512 103.613 42.048C102.589 43.52 101.085 44.256 99.1008 44.256C97.3088 44.256 95.7088 43.584 94.3008 42.24C95.1968 41.6 95.8688 40.672 96.3168 39.456C96.8288 38.24 97.0848 36.992 97.0848 35.712C97.0848 33.728 96.4448 32.096 95.1648 30.816C93.8848 29.536 91.9328 28.896 89.3088 28.896C86.4288 28.896 84.3488 29.696 83.0688 31.296C81.7888 32.896 81.1488 35.04 81.1488 37.728C81.1488 40.864 81.8848 43.424 83.3568 45.408C84.8928 47.392 86.7808 49.184 89.0208 50.784C91.2608 52.32 93.6608 53.792 96.2208 55.2C98.8448 56.608 101.277 58.272 103.517 60.192C105.757 62.112 107.613 64.448 109.085 67.2C110.621 69.888 111.389 73.344 111.389 77.568C111.389 81.152 110.781 84.224 109.565 86.784C108.413 89.344 106.813 91.456 104.765 93.12C102.717 94.72 100.285 95.872 97.4688 96.576C94.6528 97.344 91.5808 97.728 88.2528 97.728C85.3088 97.728 82.3968 97.408 79.5168 96.768C76.7008 96.192 74.1728 95.232 71.9328 93.888C69.7568 92.48 67.9968 90.656 66.6528 88.416C65.3088 86.112 64.6367 83.328 64.6367 80.064C64.6367 77.888 64.9248 75.904 65.5008 74.112C66.1408 72.32 66.9728 70.816 67.9968 69.6C69.0848 68.384 70.3328 67.456 71.7408 66.816C73.1488 66.112 74.6208 65.76 76.1568 65.76C76.9248 65.76 77.7568 65.856 78.6528 66.048C79.5488 66.24 80.4448 66.592 81.3408 67.104C82.2368 67.552 83.0688 68.192 83.8368 69.024C84.6048 69.856 85.2128 70.88 85.6608 72.096C84.5088 72.096 83.3568 72.224 82.2048 72.48C81.0528 72.736 79.9968 73.184 79.0368 73.824C78.1408 74.464 77.4048 75.36 76.8288 76.512C76.2528 77.6 75.9648 79.008 75.9648 80.736C75.9648 84.064 76.9888 86.464 79.0368 87.936C81.0848 89.344 83.6448 90.048 86.7168 90.048C89.7888 90.048 92.1568 89.312 93.8208 87.84C95.4848 86.368 96.3168 83.84 96.3168 80.256C96.3168 76.928 95.6128 74.112 94.2048 71.808C92.8608 69.504 91.1328 67.488 89.0208 65.76C86.9088 64.032 84.6368 62.432 82.2048 60.96C79.8368 59.424 77.5968 57.792 75.4848 56.064C73.3728 54.272 71.6128 52.192 70.2048 49.824C68.8608 47.456 68.1888 44.544 68.1888 41.088C68.1888 35.52 70.0448 31.296 73.7568 28.416C77.4688 25.472 82.5248 24 88.9248 24C89.8208 24 91.1648 24.096 92.9568 24.288C94.8128 24.416 96.6368 24.896 98.4288 25.728C100.285 26.496 101.885 27.712 103.229 29.376C104.573 30.976 105.245 33.216 105.245 36.096ZM165.657 46.08C168.921 46.08 171.257 47.68 172.665 50.88C174.137 54.08 174.873 58.496 174.873 64.128C174.873 67.776 174.553 71.52 173.913 75.36C173.273 79.2 172.185 82.688 170.649 85.824C169.113 88.96 167.065 91.552 164.505 93.6C162.009 95.584 158.873 96.576 155.097 96.576C151.897 96.576 149.177 95.872 146.937 94.464C144.697 93.056 143.033 91.072 141.945 88.512C141.113 90.304 140.185 91.744 139.161 92.832C138.137 93.856 137.081 94.656 135.993 95.232C134.905 95.808 133.817 96.16 132.729 96.288C131.641 96.48 130.617 96.576 129.657 96.576C125.113 96.576 121.817 95.232 119.769 92.544C117.785 89.856 116.793 86.24 116.793 81.696V48H130.617V80.64C130.617 83.072 130.937 84.8 131.577 85.824C132.281 86.784 133.273 87.264 134.553 87.264C136.281 87.264 137.657 86.464 138.681 84.864C139.705 83.264 140.313 81.248 140.505 78.816V48H154.329V80.64C154.329 82.944 154.649 84.64 155.289 85.728C155.929 86.752 156.985 87.264 158.457 87.264C160.313 87.264 161.913 86.528 163.257 85.056C164.601 83.584 165.689 81.696 166.521 79.392C167.417 77.088 168.057 74.528 168.441 71.712C168.889 68.896 169.113 66.144 169.113 63.456C169.113 60.512 168.857 57.76 168.345 55.2C168.217 55.52 167.801 55.776 167.097 55.968C166.393 56.096 165.849 56.16 165.465 56.16C164.761 56.16 164.121 55.968 163.545 55.584C163.033 55.2 162.553 54.72 162.105 54.144C161.721 53.504 161.401 52.832 161.145 52.128C160.953 51.424 160.857 50.752 160.857 50.112C160.857 48.96 161.241 48 162.009 47.232C162.841 46.464 164.057 46.08 165.657 46.08ZM202.15 88.512C204.07 88.512 205.766 88.256 207.238 87.744C208.71 87.232 210.022 86.56 211.174 85.728C212.326 84.832 213.382 83.808 214.342 82.656C215.302 81.44 216.23 80.16 217.126 78.816H220.39C219.494 81.056 218.406 83.232 217.126 85.344C215.91 87.456 214.374 89.344 212.518 91.008C210.726 92.672 208.614 94.016 206.182 95.04C203.75 96.064 200.902 96.576 197.638 96.576C194.886 96.576 192.358 96.16 190.054 95.328C187.75 94.496 185.734 93.216 184.006 91.488C182.342 89.696 181.03 87.424 180.07 84.672C179.174 81.856 178.726 78.496 178.726 74.592C178.726 71.84 179.014 68.896 179.59 65.76C180.23 62.56 181.318 59.616 182.854 56.928C184.39 54.24 186.47 52 189.094 50.208C191.718 48.416 195.046 47.52 199.078 47.52C202.15 47.52 204.518 48 206.182 48.96C207.846 49.92 209.062 51.04 209.83 52.32C210.662 53.6 211.142 54.848 211.27 56.064C211.462 57.28 211.558 58.144 211.558 58.656C211.558 61.536 211.014 64.064 209.926 66.24C208.902 68.416 207.494 70.272 205.702 71.808C203.974 73.28 201.958 74.432 199.654 75.264C197.414 76.032 195.11 76.48 192.742 76.608C192.806 80.896 193.51 83.968 194.854 85.824C196.262 87.616 198.694 88.512 202.15 88.512ZM204.166 58.752C204.166 56.512 203.782 54.944 203.014 54.048C202.246 53.088 201.414 52.608 200.518 52.608C199.43 52.608 198.438 53.152 197.542 54.24C196.646 55.264 195.846 56.672 195.142 58.464C194.502 60.192 193.958 62.24 193.51 64.608C193.126 66.976 192.87 69.44 192.742 72C194.342 71.872 195.846 71.456 197.254 70.752C198.662 69.984 199.878 69.024 200.902 67.872C201.926 66.656 202.726 65.28 203.302 63.744C203.878 62.208 204.166 60.544 204.166 58.752ZM238.994 88.512C240.914 88.512 242.61 88.256 244.082 87.744C245.554 87.232 246.866 86.56 248.018 85.728C249.17 84.832 250.226 83.808 251.186 82.656C252.146 81.44 253.074 80.16 253.97 78.816H257.234C256.338 81.056 255.25 83.232 253.97 85.344C252.754 87.456 251.218 89.344 249.362 91.008C247.57 92.672 245.458 94.016 243.026 95.04C240.594 96.064 237.746 96.576 234.482 96.576C231.73 96.576 229.202 96.16 226.898 95.328C224.594 94.496 222.578 93.216 220.85 91.488C219.186 89.696 217.874 87.424 216.914 84.672C216.018 81.856 215.57 78.496 215.57 74.592C215.57 71.84 215.858 68.896 216.434 65.76C217.074 62.56 218.162 59.616 219.698 56.928C221.234 54.24 223.314 52 225.938 50.208C228.562 48.416 231.89 47.52 235.922 47.52C238.994 47.52 241.362 48 243.026 48.96C244.69 49.92 245.906 51.04 246.674 52.32C247.506 53.6 247.986 54.848 248.114 56.064C248.306 57.28 248.402 58.144 248.402 58.656C248.402 61.536 247.858 64.064 246.77 66.24C245.746 68.416 244.338 70.272 242.546 71.808C240.818 73.28 238.802 74.432 236.498 75.264C234.258 76.032 231.954 76.48 229.586 76.608C229.65 80.896 230.354 83.968 231.698 85.824C233.106 87.616 235.538 88.512 238.994 88.512ZM241.01 58.752C241.01 56.512 240.626 54.944 239.858 54.048C239.09 53.088 238.258 52.608 237.362 52.608C236.274 52.608 235.282 53.152 234.386 54.24C233.49 55.264 232.69 56.672 231.986 58.464C231.346 60.192 230.802 62.24 230.354 64.608C229.97 66.976 229.714 69.44 229.586 72C231.186 71.872 232.69 71.456 234.098 70.752C235.506 69.984 236.722 69.024 237.746 67.872C238.77 66.656 239.57 65.28 240.146 63.744C240.722 62.208 241.01 60.544 241.01 58.752ZM268.158 32.832V48H273.918V51.84H268.158V80.64C268.158 83.328 268.51 85.12 269.214 86.016C269.982 86.848 271.294 87.264 273.15 87.264C273.854 87.264 274.398 87.2 274.781 87.072C275.23 86.88 275.582 86.688 275.838 86.496C275.902 86.816 275.934 87.168 275.934 87.552C275.934 87.872 275.934 88.192 275.934 88.512C275.934 91.2 275.134 93.216 273.534 94.56C271.998 95.904 270.046 96.576 267.678 96.576C262.75 96.576 259.294 95.232 257.31 92.544C255.326 89.792 254.334 86.176 254.334 81.696V51.84H251.262V48H254.334V34.752L268.158 32.832Z" fill="#C14B5E"/>
</svg>
